<?xml version="1.0" encoding="UTF-8" ?>
<!DOCTYPE svg PUBLIC "-//W3C//DTD SVG 1.1//EN" "http://www.w3.org/Graphics/SVG/1.1/DTD/svg11.dtd">
<svg width="1299pt" height="751pt" viewBox="0 0 1299 751" version="1.1" xmlns="http://www.w3.org/2000/svg">
<path fill="#ffffff" d=" M 0.00 0.00 L 0.50 0.00 C 6.91 16.03 13.40 32.04 19.97 48.01 C 22.06 52.98 23.50 58.25 26.21 62.95 C 27.85 66.00 31.80 65.61 34.78 66.35 C 72.17 71.33 109.55 76.35 146.88 81.77 C 168.20 54.60 188.95 26.96 210.52 0.00 L 291.52 0.00 C 252.84 50.05 213.64 99.71 175.35 150.06 C 160.64 149.07 146.10 146.54 131.50 144.57 C 92.76 139.34 54.06 133.87 15.31 128.74 C 10.19 128.01 5.04 127.34 0.00 126.16 L 0.00 0.00 Z" />
<path fill="#000000" d=" M 0.50 0.00 L 15.44 0.00 C 22.70 17.38 29.75 34.86 36.69 52.38 C 71.41 57.20 106.17 61.79 140.86 66.77 C 158.06 44.46 175.33 22.19 192.68 0.00 L 210.52 0.00 C 188.95 26.96 168.20 54.60 146.88 81.77 C 109.55 76.35 72.17 71.33 34.78 66.35 C 31.80 65.61 27.85 66.00 26.21 62.95 C 23.50 58.25 22.06 52.98 19.97 48.01 C 13.40 32.04 6.91 16.03 0.50 0.00 Z" />
<path fill="#ffffff" d=" M 15.44 0.00 L 192.68 0.00 C 175.33 22.19 158.06 44.46 140.86 66.77 C 106.17 61.79 71.41 57.20 36.69 52.38 C 29.75 34.86 22.70 17.38 15.44 0.00 Z" />
<path fill="#000000" d=" M 291.52 0.00 L 358.60 0.00 C 354.44 5.16 350.50 10.49 346.58 15.85 C 370.95 19.51 395.38 22.78 419.81 26.02 C 426.82 17.46 432.99 8.19 440.45 0.00 L 457.70 0.00 C 450.14 9.32 442.98 18.95 435.65 28.45 C 460.38 31.26 484.92 35.57 509.70 38.05 C 518.32 26.16 527.71 14.83 536.43 3.00 C 545.71 4.05 555.17 4.43 564.26 6.77 C 567.66 7.54 568.87 11.12 570.14 13.93 C 572.40 19.66 574.78 25.34 576.95 31.11 C 577.26 32.79 578.88 34.92 577.62 36.62 C 569.88 48.05 560.13 57.96 552.39 69.39 C 551.00 71.43 552.26 73.93 552.86 76.03 C 561.76 97.05 570.24 118.26 578.77 139.44 C 601.35 111.99 622.19 83.16 644.57 55.53 C 646.76 52.26 650.03 49.48 651.29 45.63 C 651.57 42.92 649.94 40.43 649.19 37.92 C 643.96 25.31 638.55 12.77 633.70 0.00 L 648.50 0.00 C 654.09 11.88 658.14 24.43 663.65 36.36 C 665.80 41.61 669.94 48.39 664.02 52.97 C 637.66 86.75 611.54 120.73 585.05 154.42 C 594.45 177.32 603.39 200.42 613.28 223.11 C 649.62 176.18 686.11 129.36 722.43 82.42 C 728.49 74.23 735.88 66.91 740.38 57.66 C 740.63 54.34 738.97 51.26 737.86 48.24 C 731.03 32.20 724.98 15.82 717.68 0.00 L 804.23 0.00 C 770.95 43.11 737.65 86.22 704.01 129.04 C 701.07 133.40 694.47 138.32 697.47 144.38 C 717.88 193.79 737.91 243.38 758.14 292.87 C 761.86 302.28 765.71 311.63 769.98 320.80 C 839.06 329.68 908.02 339.49 977.00 349.09 C 967.62 326.17 958.50 303.15 948.81 280.36 C 907.30 275.22 865.97 268.80 824.45 263.74 C 821.15 262.89 816.24 263.45 814.25 259.91 C 811.60 255.48 810.21 250.46 808.24 245.71 C 795.77 215.17 783.38 184.58 770.75 154.10 C 769.16 151.12 770.32 147.99 772.58 145.67 C 796.23 115.48 819.64 85.06 843.24 54.81 C 888.16 60.00 932.89 66.83 977.68 72.99 C 992.72 53.38 1007.88 33.87 1023.03 14.34 C 989.11 9.82 955.09 5.76 921.35 0.00 L 1025.49 0.00 C 1061.44 5.19 1097.42 10.31 1133.48 14.80 C 1137.23 9.83 1140.82 4.69 1144.95 0.00 L 1229.97 0.00 C 1246.85 41.23 1263.70 82.48 1280.43 123.77 C 1286.61 124.58 1292.81 125.43 1299.00 126.26 L 1299.00 140.13 C 1294.91 139.80 1290.94 139.45 1286.89 139.08 C 1290.69 149.09 1294.79 158.96 1299.00 168.80 L 1299.00 206.67 C 1277.24 153.79 1255.67 100.80 1234.20 47.80 C 1233.20 44.85 1230.77 42.63 1227.57 42.55 C 1173.86 35.39 1120.19 27.84 1066.50 20.53 C 1057.69 19.41 1048.95 17.36 1040.04 17.31 C 1038.52 17.27 1037.46 18.49 1036.54 19.50 C 999.50 67.45 962.40 115.38 925.04 163.09 C 923.50 166.10 919.58 168.74 920.56 172.53 C 921.63 177.60 924.08 182.22 926.01 187.00 C 950.27 246.01 973.98 305.24 998.41 364.18 C 1013.29 346.65 1026.71 327.95 1041.13 310.05 C 1043.48 307.54 1043.43 304.06 1042.00 301.11 C 1027.88 267.09 1014.16 232.90 1000.19 198.82 C 998.10 193.56 995.39 188.52 994.00 183.01 C 992.84 179.47 996.21 176.57 997.93 173.97 C 1021.31 144.59 1043.93 114.64 1067.13 85.13 C 1104.00 90.10 1140.83 95.39 1177.73 100.15 C 1180.92 101.00 1185.85 100.60 1187.66 104.18 C 1190.10 108.43 1191.47 113.17 1193.31 117.69 C 1206.82 151.12 1220.67 184.42 1233.99 217.93 C 1235.66 221.50 1236.69 226.89 1241.43 227.37 C 1260.56 230.29 1279.80 232.64 1299.00 235.18 L 1299.00 249.98 C 1240.73 241.48 1182.33 233.78 1123.99 225.80 C 1081.34 280.87 1038.40 335.71 995.96 390.95 C 1020.43 394.73 1045.00 397.84 1069.58 400.87 C 1096.97 365.20 1124.82 329.88 1152.13 294.14 C 1189.28 299.09 1226.39 304.43 1263.56 309.23 C 1266.23 310.11 1270.64 309.47 1272.40 312.45 C 1275.28 317.03 1276.68 322.33 1278.74 327.29 C 1285.39 343.80 1292.17 360.26 1299.00 376.69 L 1299.00 413.66 C 1286.57 383.73 1274.23 353.76 1262.31 323.62 C 1227.61 318.71 1192.83 314.40 1158.20 309.07 C 1139.87 332.78 1121.56 356.51 1103.12 380.13 C 1097.14 387.82 1090.90 395.34 1085.51 403.48 C 1109.98 406.36 1134.30 410.40 1158.80 413.10 C 1168.06 401.53 1177.03 389.72 1186.19 378.06 C 1195.28 379.15 1204.52 379.46 1213.46 381.58 C 1216.92 382.21 1218.17 385.81 1219.49 388.60 C 1221.80 394.29 1224.25 399.94 1226.36 405.72 C 1226.87 407.64 1227.94 409.90 1226.75 411.79 C 1220.65 421.46 1212.60 429.70 1205.79 438.85 C 1204.15 441.30 1201.40 443.72 1201.46 446.94 C 1201.70 449.75 1202.92 452.35 1203.97 454.95 C 1212.45 474.56 1219.99 494.56 1228.42 514.19 C 1252.39 484.41 1275.64 454.03 1299.00 423.76 L 1299.00 446.49 C 1278.51 473.46 1257.35 499.94 1236.72 526.80 C 1234.35 529.45 1235.98 533.05 1237.00 535.91 C 1245.66 556.59 1254.14 577.34 1262.42 598.17 C 1274.81 582.71 1286.97 567.04 1299.00 551.31 L 1299.00 574.50 C 1268.87 613.51 1238.40 652.30 1208.37 691.39 C 1206.54 694.23 1208.70 697.54 1209.57 700.36 C 1216.97 717.07 1223.23 734.26 1230.57 751.00 L 1143.86 751.00 C 1180.34 705.06 1215.52 658.09 1252.15 612.27 C 1249.13 599.78 1242.97 588.40 1238.54 576.41 C 1218.54 527.76 1199.07 478.90 1178.81 430.36 C 1109.69 421.38 1040.72 411.38 971.66 401.99 C 980.78 425.04 989.91 448.12 999.98 470.79 C 1040.96 475.65 1081.75 482.10 1122.71 487.15 C 1126.11 487.89 1130.11 487.83 1133.16 489.85 C 1135.03 491.86 1135.99 494.52 1137.09 497.01 C 1150.62 531.85 1165.50 566.14 1179.15 600.93 C 1154.87 632.86 1129.63 664.07 1105.54 696.15 C 1076.92 693.44 1048.55 688.54 1020.03 684.93 C 1003.72 682.63 987.38 680.62 971.11 678.05 C 955.66 697.34 940.68 716.99 925.61 736.57 C 959.29 741.30 993.14 745.11 1026.65 751.00 L 922.52 751.00 C 886.81 745.49 850.95 741.07 815.18 735.99 C 811.26 740.99 807.71 746.30 803.42 751.00 L 718.30 751.00 C 701.76 709.61 684.65 668.45 667.96 627.12 C 603.54 618.63 539.21 609.51 474.82 600.77 C 446.96 635.67 420.04 671.31 392.44 706.43 C 380.68 721.18 369.81 736.68 357.53 751.00 L 290.59 751.00 C 295.06 745.97 298.88 740.40 303.01 735.11 C 278.48 731.54 253.93 728.15 229.34 725.06 C 222.68 733.66 216.34 742.53 209.51 751.00 L 191.61 751.00 C 199.32 741.83 206.49 732.22 213.52 722.54 C 189.03 719.73 164.71 715.54 140.20 712.90 C 130.94 724.47 121.97 736.28 112.81 747.94 C 103.47 746.75 93.91 746.60 84.77 744.19 C 80.01 742.47 79.67 736.31 77.45 732.44 C 75.53 726.79 72.03 721.43 71.76 715.37 C 76.68 706.19 84.38 698.85 90.58 690.54 C 92.83 687.03 96.59 684.15 97.44 679.89 C 97.37 676.02 95.50 672.48 94.12 668.95 C 86.01 650.02 78.61 630.79 70.61 611.81 C 46.35 641.13 24.15 672.09 0.00 701.50 L 0.00 679.50 C 20.57 652.60 41.59 626.02 62.28 599.20 C 64.64 596.54 63.01 592.94 62.00 590.09 C 53.34 569.41 44.86 548.67 36.58 527.84 C 24.09 543.22 12.03 558.96 0.00 574.70 L 0.00 551.50 C 29.34 513.67 58.59 475.74 88.17 438.09 C 89.93 435.90 92.40 433.09 91.00 430.06 C 66.94 370.76 42.58 311.56 18.53 252.24 C 12.35 251.42 6.18 250.57 0.00 249.73 L 0.00 235.87 C 4.04 236.19 8.07 236.55 12.11 236.92 C 8.38 226.94 4.12 217.18 0.00 207.37 L 0.00 169.32 C 21.55 222.01 43.18 274.68 64.42 327.49 C 65.54 330.60 67.86 333.41 71.43 333.45 C 134.32 341.91 197.17 350.73 260.06 359.22 C 298.50 310.22 336.35 260.76 374.82 211.79 C 376.49 209.34 379.12 206.71 378.40 203.46 C 376.98 196.92 373.54 191.04 371.20 184.82 C 347.68 127.14 324.26 69.43 300.60 11.81 C 287.07 27.67 274.90 44.62 261.78 60.81 C 259.78 63.82 256.77 66.44 255.88 70.04 C 256.28 74.54 258.60 78.58 260.21 82.73 C 274.79 117.96 288.88 153.39 303.60 188.55 C 304.36 190.80 305.46 193.14 305.15 195.57 C 303.94 199.16 300.96 201.79 298.88 204.85 C 276.20 233.26 254.30 262.27 231.86 290.86 C 194.70 285.96 157.63 280.44 120.44 275.78 C 117.95 274.72 113.93 275.65 112.09 273.04 C 109.35 268.99 108.07 264.20 106.22 259.72 C 93.35 227.99 80.38 196.30 67.49 164.58 C 65.63 160.07 64.30 155.30 61.74 151.11 C 60.08 148.10 55.74 148.71 53.07 147.82 C 35.37 145.61 17.71 143.00 0.00 140.81 L 0.00 126.16 C 5.04 127.34 10.19 128.01 15.31 128.74 C 54.06 133.87 92.76 139.34 131.50 144.57 C 146.10 146.54 160.64 149.07 175.35 150.06 C 213.64 99.71 252.84 50.05 291.52 0.00 Z" />
<path fill="#ffffff" d=" M 358.60 0.00 L 440.45 0.00 C 432.99 8.19 426.82 17.46 419.81 26.02 C 395.38 22.78 370.95 19.51 346.58 15.85 C 350.50 10.49 354.44 5.16 358.60 0.00 Z" />
<path fill="#ffffff" d=" M 457.70 0.00 L 633.70 0.00 C 638.55 12.77 643.96 25.31 649.19 37.92 C 649.94 40.43 651.57 42.92 651.29 45.63 C 650.03 49.48 646.76 52.26 644.57 55.53 C 622.19 83.16 601.35 111.99 578.77 139.44 C 570.24 118.26 561.76 97.05 552.86 76.03 C 552.26 73.93 551.00 71.43 552.39 69.39 C 560.13 57.96 569.88 48.05 577.62 36.62 C 578.88 34.92 577.26 32.79 576.95 31.11 C 574.78 25.34 572.40 19.66 570.14 13.93 C 568.87 11.12 567.66 7.54 564.26 6.77 C 555.17 4.43 545.71 4.05 536.43 3.00 C 527.71 14.83 518.32 26.16 509.70 38.05 C 484.92 35.57 460.38 31.26 435.65 28.45 C 442.98 18.95 450.14 9.32 457.70 0.00 Z" />
<path fill="#ffffff" d=" M 648.50 0.00 L 717.68 0.00 C 724.98 15.82 731.03 32.20 737.86 48.24 C 738.97 51.26 740.63 54.34 740.38 57.66 C 735.88 66.91 728.49 74.23 722.43 82.42 C 686.11 129.36 649.62 176.18 613.28 223.11 C 603.39 200.42 594.45 177.32 585.05 154.42 C 611.54 120.73 637.66 86.75 664.02 52.97 C 669.94 48.39 665.80 41.61 663.65 36.36 C 658.14 24.43 654.09 11.88 648.50 0.00 Z" />
<path fill="#ffffff" d=" M 804.23 0.00 L 921.35 0.00 C 955.09 5.76 989.11 9.82 1023.03 14.34 C 1007.88 33.87 992.72 53.38 977.68 72.99 C 932.89 66.83 888.16 60.00 843.24 54.81 C 819.64 85.06 796.23 115.48 772.58 145.67 C 770.32 147.99 769.16 151.12 770.75 154.10 C 783.38 184.58 795.77 215.17 808.24 245.71 C 810.21 250.46 811.60 255.48 814.25 259.91 C 816.24 263.45 821.15 262.89 824.45 263.74 C 865.97 268.80 907.30 275.22 948.81 280.36 C 958.50 303.15 967.62 326.17 977.00 349.09 C 908.02 339.49 839.06 329.68 769.98 320.80 C 765.71 311.63 761.86 302.28 758.14 292.87 C 737.91 243.38 717.88 193.79 697.47 144.38 C 694.47 138.32 701.07 133.40 704.01 129.04 C 737.65 86.22 770.95 43.11 804.23 0.00 Z" />
<path fill="#ffffff" d=" M 1025.49 0.00 L 1144.95 0.00 C 1140.82 4.69 1137.23 9.83 1133.48 14.80 C 1097.42 10.31 1061.44 5.19 1025.49 0.00 Z" />
<path fill="#ffffff" d=" M 1229.97 0.00 L 1299.00 0.00 L 1299.00 126.26 C 1292.81 125.43 1286.61 124.58 1280.43 123.77 C 1263.70 82.48 1246.85 41.23 1229.97 0.00 Z" />
<path fill="#ffffff" d=" M 261.78 60.81 C 274.90 44.62 287.07 27.67 300.60 11.81 C 324.26 69.43 347.68 127.14 371.20 184.82 C 373.54 191.04 376.98 196.92 378.40 203.46 C 379.12 206.71 376.49 209.34 374.82 211.79 C 336.35 260.76 298.50 310.22 260.06 359.22 C 197.17 350.73 134.32 341.91 71.43 333.45 C 67.86 333.41 65.54 330.60 64.42 327.49 C 43.18 274.68 21.55 222.01 0.00 169.32 L 0.00 140.81 C 17.71 143.00 35.37 145.61 53.07 147.82 C 55.74 148.71 60.08 148.10 61.74 151.11 C 64.30 155.30 65.63 160.07 67.49 164.58 C 80.38 196.30 93.35 227.99 106.22 259.72 C 108.07 264.20 109.35 268.99 112.09 273.04 C 113.93 275.65 117.95 274.72 120.44 275.78 C 157.63 280.44 194.70 285.96 231.86 290.86 C 254.30 262.27 276.20 233.26 298.88 204.85 C 300.96 201.79 303.94 199.16 305.15 195.57 C 305.46 193.14 304.36 190.80 303.60 188.55 C 288.88 153.39 274.79 117.96 260.21 82.73 C 258.60 78.58 256.28 74.54 255.88 70.04 C 256.77 66.44 259.78 63.82 261.78 60.81 Z" />
<path fill="#ffffff" d=" M 1036.54 19.50 C 1037.46 18.49 1038.52 17.27 1040.04 17.31 C 1048.95 17.36 1057.69 19.41 1066.50 20.53 C 1120.19 27.84 1173.86 35.39 1227.57 42.55 C 1230.77 42.63 1233.20 44.85 1234.20 47.80 C 1255.67 100.80 1277.24 153.79 1299.00 206.67 L 1299.00 235.18 C 1279.80 232.64 1260.56 230.29 1241.43 227.37 C 1236.69 226.89 1235.66 221.50 1233.99 217.93 C 1220.67 184.42 1206.82 151.12 1193.31 117.69 C 1191.47 113.17 1190.10 108.43 1187.66 104.18 C 1185.85 100.60 1180.92 101.00 1177.73 100.15 C 1140.83 95.39 1104.00 90.10 1067.13 85.13 C 1043.93 114.64 1021.31 144.59 997.93 173.97 C 996.21 176.57 992.84 179.47 994.00 183.01 C 995.39 188.52 998.10 193.56 1000.19 198.82 C 1014.16 232.90 1027.88 267.09 1042.00 301.11 C 1043.43 304.06 1043.48 307.54 1041.13 310.05 C 1026.71 327.95 1013.29 346.65 998.41 364.18 C 973.98 305.24 950.27 246.01 926.01 187.00 C 924.08 182.22 921.63 177.60 920.56 172.53 C 919.58 168.74 923.50 166.10 925.04 163.09 C 962.40 115.38 999.50 67.45 1036.54 19.50 Z" />
<path fill="#ffffff" d=" M 322.01 26.89 C 391.04 36.03 459.97 45.96 529.01 55.09 C 539.80 79.32 549.16 104.17 559.41 128.63 C 573.94 164.41 588.53 200.17 603.12 235.93 C 563.52 287.41 523.35 338.45 483.81 389.98 C 414.42 381.28 345.25 370.93 275.92 361.83 C 289.83 343.48 304.29 325.55 318.13 307.15 C 319.64 305.41 321.11 302.76 323.83 303.27 C 367.83 309.05 411.74 315.69 455.79 321.09 C 480.71 289.54 505.09 257.57 529.84 225.88 C 515.68 191.69 501.76 157.41 487.93 123.09 C 486.22 119.54 485.52 113.76 480.58 113.60 C 437.05 107.71 393.55 101.59 350.01 95.83 C 340.72 72.83 331.21 49.92 322.01 26.89 Z" />
<path fill="#ffffff" d=" M 849.24 69.81 C 877.94 72.50 906.38 77.51 934.99 81.09 C 945.76 82.57 956.59 83.77 967.28 85.81 C 952.65 105.40 937.20 124.38 922.62 144.01 C 907.42 142.88 892.41 140.14 877.32 138.12 C 872.49 144.65 867.38 150.98 862.33 157.33 C 860.98 159.39 858.63 161.61 859.68 164.30 C 862.57 173.34 866.92 181.84 870.25 190.72 C 884.06 192.58 897.96 193.97 911.69 196.40 C 915.32 196.74 916.46 200.49 917.72 203.31 C 925.93 224.05 934.45 244.65 942.86 265.30 C 918.87 262.80 895.07 258.81 871.14 255.76 C 855.56 253.43 839.84 251.98 824.39 248.89 C 811.85 216.48 798.13 184.53 785.28 152.24 C 806.66 124.81 827.87 97.25 849.24 69.81 Z" />
<path fill="#ffffff" d=" M 199.78 141.09 C 214.99 121.65 229.79 101.87 245.36 82.71 C 259.93 119.61 275.25 156.20 290.13 192.98 C 268.87 220.74 247.14 248.14 225.85 275.89 C 191.27 271.40 156.77 266.29 122.19 261.78 C 107.14 224.84 92.08 187.90 77.05 150.95 C 101.57 154.46 126.17 157.49 150.66 161.22 C 156.20 175.09 161.80 188.92 167.34 202.79 C 177.49 204.35 187.68 205.64 197.87 206.98 C 204.27 199.02 210.70 191.07 216.81 182.88 C 210.90 169.05 205.29 155.08 199.78 141.09 Z" />
<path fill="#ffffff" d=" M 1073.14 100.11 C 1107.71 104.69 1142.23 109.67 1176.81 114.22 C 1191.80 151.19 1206.88 188.11 1221.95 225.05 C 1197.42 221.54 1172.83 218.51 1148.34 214.78 C 1142.87 200.88 1137.10 187.11 1131.61 173.23 C 1121.46 171.77 1111.30 170.37 1101.14 169.01 C 1094.73 176.98 1088.29 184.93 1082.17 193.13 C 1088.07 206.97 1093.61 220.96 1099.22 234.92 C 1083.88 254.26 1069.28 274.18 1053.64 293.29 C 1038.96 256.44 1023.85 219.77 1008.79 183.08 C 1030.18 155.37 1051.76 127.82 1073.14 100.11 Z" />
<path fill="#ffffff" d=" M 356.04 110.76 C 392.35 114.83 428.45 120.62 464.71 125.19 C 468.36 126.08 474.48 125.48 475.75 130.25 C 488.14 161.53 501.16 192.55 513.73 223.76 C 492.42 251.24 470.97 278.62 449.78 306.19 C 422.84 303.73 396.16 298.98 369.32 295.65 C 356.77 293.82 344.13 292.55 331.67 290.17 C 346.17 270.48 361.90 251.71 376.38 232.00 C 391.58 233.12 406.58 235.86 421.68 237.88 C 426.38 231.55 431.29 225.37 436.24 219.23 C 437.94 216.83 440.65 214.10 439.11 210.94 C 436.11 202.21 432.03 193.90 428.75 185.28 C 416.99 183.83 405.25 182.27 393.51 180.69 C 390.14 179.63 384.32 180.50 382.83 176.21 C 373.78 154.45 365.18 132.49 356.04 110.76 Z" />
<path fill="#ffffff" d=" M 1286.89 139.08 C 1290.94 139.45 1294.91 139.80 1299.00 140.13 L 1299.00 168.80 C 1294.79 158.96 1290.69 149.09 1286.89 139.08 Z" />
<path fill="#ffffff" d=" M 559.94 314.97 C 601.98 261.00 643.77 206.81 685.90 152.89 C 695.32 175.76 704.72 198.64 713.85 221.63 C 685.92 256.91 658.72 292.76 630.83 328.07 C 645.41 364.43 660.45 400.62 675.04 436.97 C 675.95 440.43 679.88 440.96 682.95 441.15 C 720.62 446.31 758.36 451.07 795.94 456.85 C 824.08 421.54 851.32 385.53 879.19 350.02 C 903.68 352.88 928.16 355.98 952.47 360.10 C 910.04 415.25 866.87 469.84 824.72 525.21 C 790.82 521.49 757.13 516.06 723.32 511.69 C 692.56 507.40 661.77 503.38 631.04 498.92 C 607.59 441.39 584.22 383.81 560.61 326.34 C 559.23 322.78 556.76 318.33 559.94 314.97 Z" />
<path fill="#ffffff" d=" M 0.00 207.37 C 4.12 217.18 8.38 226.94 12.11 236.92 C 8.07 236.55 4.04 236.19 0.00 235.87 L 0.00 207.37 Z" />
<path fill="#ffffff" d=" M 995.96 390.95 C 1038.40 335.71 1081.34 280.87 1123.99 225.80 C 1182.33 233.78 1240.73 241.48 1299.00 249.98 L 1299.00 376.69 C 1292.17 360.26 1285.39 343.80 1278.74 327.29 C 1276.68 322.33 1275.28 317.03 1272.40 312.45 C 1270.64 309.47 1266.23 310.11 1263.56 309.23 C 1226.39 304.43 1189.28 299.09 1152.13 294.14 C 1124.82 329.88 1096.97 365.20 1069.58 400.87 C 1045.00 397.84 1020.43 394.73 995.96 390.95 Z" />
<path fill="#ffffff" d=" M 650.57 325.63 C 673.71 296.00 696.78 266.31 719.80 236.58 C 729.67 259.21 738.53 282.27 748.04 305.06 C 739.89 315.25 731.99 325.64 723.75 335.76 C 722.37 337.83 719.89 340.10 721.20 342.82 C 724.34 351.68 728.39 360.21 731.96 368.92 C 742.20 370.26 752.41 371.83 762.69 372.94 C 771.21 360.97 780.77 349.78 789.40 337.89 C 814.17 339.87 838.64 344.59 863.33 347.34 C 838.95 378.93 814.64 410.59 789.89 441.89 C 755.56 437.32 721.30 432.29 686.95 427.92 C 676.29 403.92 666.99 379.34 656.86 355.12 C 654.04 347.42 650.05 340.15 647.70 332.29 C 646.76 329.66 649.39 327.66 650.57 325.63 Z" />
<path fill="#ffffff" d=" M 0.00 249.73 C 6.18 250.57 12.35 251.42 18.53 252.24 C 42.58 311.56 66.94 370.76 91.00 430.06 C 92.40 433.09 89.93 435.90 88.17 438.09 C 58.59 475.74 29.34 513.67 0.00 551.50 L 0.00 446.68 C 5.95 438.49 12.54 430.78 18.71 422.76 C 12.57 407.59 6.01 392.57 0.00 377.35 L 0.00 249.73 Z" />
<path fill="#ffffff" d=" M 1158.20 309.07 C 1192.83 314.40 1227.61 318.71 1262.31 323.62 C 1274.23 353.76 1286.57 383.73 1299.00 413.66 L 1299.00 423.76 C 1275.64 454.03 1252.39 484.41 1228.42 514.19 C 1219.99 494.56 1212.45 474.56 1203.97 454.95 C 1202.92 452.35 1201.70 449.75 1201.46 446.94 C 1201.40 443.72 1204.15 441.30 1205.79 438.85 C 1212.60 429.70 1220.65 421.46 1226.75 411.79 C 1227.94 409.90 1226.87 407.64 1226.36 405.72 C 1224.25 399.94 1221.80 394.29 1219.49 388.60 C 1218.17 385.81 1216.92 382.21 1213.46 381.58 C 1204.52 379.46 1195.28 379.15 1186.19 378.06 C 1177.03 389.72 1168.06 401.53 1158.80 413.10 C 1134.30 410.40 1109.98 406.36 1085.51 403.48 C 1090.90 395.34 1097.14 387.82 1103.12 380.13 C 1121.56 356.51 1139.87 332.78 1158.20 309.07 Z" />
<path fill="#ffffff" d=" M 165.52 361.20 C 171.36 361.69 177.20 362.20 182.99 363.03 C 246.43 371.89 309.92 380.37 373.35 389.30 C 358.34 408.99 343.15 428.53 327.86 448.00 C 285.40 442.34 242.97 436.39 200.53 430.55 C 197.97 430.74 193.68 428.87 191.94 431.91 C 168.83 461.79 145.71 491.68 122.36 521.37 C 120.56 523.43 119.87 526.19 121.21 528.70 C 135.78 564.78 150.73 600.71 165.27 636.80 C 209.83 643.04 254.42 649.19 299.03 655.09 C 304.40 666.89 309.13 678.98 314.00 691.00 C 318.36 702.04 323.30 712.86 327.20 724.09 C 258.16 714.88 189.19 705.09 120.16 695.78 C 95.25 635.67 71.14 575.23 46.25 515.12 C 85.91 463.73 126.04 412.71 165.52 361.20 Z" />
<path fill="#000000" d=" M 0.00 377.35 C 6.01 392.57 12.57 407.59 18.71 422.76 C 12.54 430.78 5.95 438.49 0.00 446.68 L 0.00 424.59 C 2.20 420.86 1.38 416.71 0.00 412.87 L 0.00 377.35 Z" />
<path fill="#ffffff" d=" M 949.67 386.60 C 954.58 396.59 958.30 407.10 962.59 417.37 C 984.94 471.55 1006.68 525.98 1029.07 580.15 C 989.52 631.65 949.26 682.61 909.81 734.19 C 879.09 730.93 848.60 725.91 817.97 722.01 C 784.07 717.20 750.09 712.92 716.23 707.86 C 689.84 643.22 663.58 578.53 637.09 513.93 C 661.69 516.95 686.29 520.13 710.75 524.18 C 726.96 564.55 743.67 604.72 759.86 645.10 C 760.48 649.60 765.13 649.97 768.84 650.27 C 806.45 655.30 844.07 660.29 881.61 665.85 C 902.04 639.23 922.70 612.78 943.26 586.25 C 946.91 581.30 951.48 576.94 954.26 571.40 C 954.82 566.14 952.01 561.55 950.19 556.86 C 935.55 520.84 920.68 484.91 906.11 448.87 C 905.09 446.55 904.98 443.80 906.84 441.85 C 921.21 423.51 935.40 405.02 949.67 386.60 Z" />
<path fill="#ffffff" d=" M 389.26 391.86 C 422.28 395.39 455.09 400.74 488.03 404.99 C 519.60 409.42 551.24 413.44 582.77 418.14 C 609.12 482.80 635.35 547.50 661.92 612.07 C 637.32 609.07 612.74 605.79 588.27 601.93 C 571.44 560.13 554.13 518.52 537.24 476.75 C 497.25 471.44 457.30 465.85 417.34 460.29 C 397.66 485.93 377.60 511.29 357.97 536.97 C 353.65 542.91 348.13 548.05 344.75 554.60 C 344.11 561.43 348.26 567.25 350.52 573.40 C 364.19 607.06 378.11 640.62 391.83 674.26 C 392.99 677.37 394.93 681.28 392.16 684.15 C 377.74 702.47 363.62 721.04 349.17 739.35 C 339.35 717.03 330.70 694.20 321.28 671.70 C 304.12 629.77 287.16 587.76 269.93 545.85 C 309.58 494.43 349.56 443.25 389.26 391.86 Z" />
<path fill="#ffffff" d=" M 971.66 401.99 C 1040.72 411.38 1109.69 421.38 1178.81 430.36 C 1199.07 478.90 1218.54 527.76 1238.54 576.41 C 1242.97 588.40 1249.13 599.78 1252.15 612.27 C 1215.52 658.09 1180.34 705.06 1143.86 751.00 L 1026.65 751.00 C 993.14 745.11 959.29 741.30 925.61 736.57 C 940.68 716.99 955.66 697.34 971.11 678.05 C 987.38 680.62 1003.72 682.63 1020.03 684.93 C 1048.55 688.54 1076.92 693.44 1105.54 696.15 C 1129.63 664.07 1154.87 632.86 1179.15 600.93 C 1165.50 566.14 1150.62 531.85 1137.09 497.01 C 1135.99 494.52 1135.03 491.86 1133.16 489.85 C 1130.11 487.83 1126.11 487.89 1122.71 487.15 C 1081.75 482.10 1040.96 475.65 999.98 470.79 C 989.91 448.12 980.78 425.04 971.66 401.99 Z" />
<path fill="#ffffff" d=" M 0.00 412.87 C 1.38 416.71 2.20 420.86 0.00 424.59 L 0.00 412.87 Z" />
<path fill="#ffffff" d=" M 199.40 444.89 C 207.15 445.07 214.82 446.23 222.47 447.39 C 254.35 452.06 286.37 455.82 318.21 460.78 C 302.92 480.10 287.90 499.64 272.80 519.11 C 257.87 517.56 243.01 515.44 228.19 513.06 C 221.62 521.04 215.14 529.12 209.29 537.66 C 213.30 547.03 216.84 556.59 220.94 565.92 C 235.92 567.62 250.92 569.34 265.74 572.09 C 274.55 594.92 284.30 617.38 293.21 640.17 C 255.04 635.89 217.05 629.92 178.96 624.91 C 174.45 624.58 173.37 619.44 171.80 616.10 C 160.20 586.26 147.68 556.80 135.77 527.08 C 157.04 499.73 178.58 472.57 199.40 444.89 Z" />
<path fill="#ffffff" d=" M 1236.72 526.80 C 1257.35 499.94 1278.51 473.46 1299.00 446.49 L 1299.00 551.31 C 1286.97 567.04 1274.81 582.71 1262.42 598.17 C 1254.14 577.34 1245.66 556.59 1237.00 535.91 C 1235.98 533.05 1234.35 529.45 1236.72 526.80 Z" />
<path fill="#ffffff" d=" M 849.20 516.15 C 864.44 496.77 879.21 477.04 894.61 457.80 C 908.93 491.86 922.24 526.33 936.65 560.35 C 937.69 563.70 939.89 568.15 937.29 571.25 C 916.69 597.76 895.66 623.95 875.63 650.89 C 841.03 646.54 806.56 641.18 771.94 636.93 C 761.97 613.73 752.87 590.18 743.16 566.88 C 737.85 553.23 731.80 539.87 726.82 526.09 C 751.22 529.28 775.58 532.72 799.96 536.06 C 805.65 549.98 811.19 563.97 817.02 577.83 C 827.25 579.26 837.45 580.86 847.72 581.96 C 853.72 573.83 860.13 566.01 866.18 557.93 C 860.54 543.99 854.78 530.11 849.20 516.15 Z" />
<path fill="#ffffff" d=" M 421.20 478.18 C 422.47 476.57 424.10 474.68 426.40 475.43 C 459.96 479.91 493.46 484.80 527.04 489.16 C 537.86 514.21 547.71 539.67 558.14 564.88 C 562.77 576.58 567.94 588.06 572.18 599.91 C 547.78 596.72 523.42 593.28 499.04 589.94 C 493.33 576.02 487.55 562.14 481.99 548.16 C 471.75 546.68 461.49 545.29 451.21 544.04 C 445.21 552.17 438.86 560.03 432.77 568.11 C 439.05 582.04 444.34 596.39 449.95 610.60 C 434.11 629.24 419.48 648.87 404.56 668.25 C 390.01 635.06 377.45 601.05 363.18 567.74 C 361.02 562.72 358.53 555.92 363.87 551.90 C 383.28 527.56 402.12 502.78 421.20 478.18 Z" />
<path fill="#ffffff" d=" M 1005.79 485.82 C 1042.18 489.84 1078.36 495.75 1114.71 500.22 C 1118.27 500.73 1123.61 500.68 1124.96 504.98 C 1135.07 529.60 1144.99 554.31 1155.32 578.84 C 1158.51 585.32 1160.53 592.26 1163.12 598.98 C 1141.83 626.27 1120.43 653.48 1099.59 681.10 C 1086.81 680.54 1074.22 678.10 1061.54 676.54 C 1034.64 672.65 1007.64 669.44 980.79 665.22 C 996.16 645.95 1010.95 626.24 1026.23 606.90 C 1041.14 608.44 1056.00 610.56 1070.81 612.94 C 1077.37 604.95 1083.86 596.87 1089.71 588.34 C 1085.70 578.97 1082.16 569.41 1078.06 560.08 C 1063.08 558.37 1048.08 556.66 1033.26 553.91 C 1024.38 531.11 1014.65 508.64 1005.79 485.82 Z" />
<path fill="#ffffff" d=" M 0.00 574.70 C 12.03 558.96 24.09 543.22 36.58 527.84 C 44.86 548.67 53.34 569.41 62.00 590.09 C 63.01 592.94 64.64 596.54 62.28 599.20 C 41.59 626.02 20.57 652.60 0.00 679.50 L 0.00 574.70 Z" />
<path fill="#ffffff" d=" M 1208.37 691.39 C 1238.40 652.30 1268.87 613.51 1299.00 574.50 L 1299.00 679.40 C 1293.54 686.80 1287.14 693.52 1282.06 701.19 C 1280.01 703.93 1281.91 707.27 1282.84 710.05 C 1288.27 722.86 1293.51 735.75 1299.00 748.54 L 1299.00 751.00 L 1230.57 751.00 C 1223.23 734.26 1216.97 717.07 1209.57 700.36 C 1208.70 697.54 1206.54 694.23 1208.37 691.39 Z" />
<path fill="#ffffff" d=" M 392.44 706.43 C 420.04 671.31 446.96 635.67 474.82 600.77 C 539.21 609.51 603.54 618.63 667.96 627.12 C 684.65 668.45 701.76 709.61 718.30 751.00 L 649.28 751.00 C 640.71 731.26 632.97 711.15 624.88 691.20 C 623.79 689.20 622.99 686.36 620.47 685.81 C 611.23 683.56 601.69 683.14 592.32 681.69 C 562.57 677.39 532.71 673.87 503.02 669.17 C 481.40 696.20 460.49 723.79 439.10 751.00 L 357.53 751.00 C 369.81 736.68 380.68 721.18 392.44 706.43 Z" />
<path fill="#ffffff" d=" M 0.00 701.50 C 24.15 672.09 46.35 641.13 70.61 611.81 C 78.61 630.79 86.01 650.02 94.12 668.95 C 95.50 672.48 97.37 676.02 97.44 679.89 C 96.59 684.15 92.83 687.03 90.58 690.54 C 84.38 698.85 76.68 706.19 71.76 715.37 C 72.03 721.43 75.53 726.79 77.45 732.44 C 79.67 736.31 80.01 742.47 84.77 744.19 C 93.91 746.60 103.47 746.75 112.81 747.94 C 121.97 736.28 130.94 724.47 140.20 712.90 C 164.71 715.54 189.03 719.73 213.52 722.54 C 206.49 732.22 199.32 741.83 191.61 751.00 L 15.91 751.00 C 10.65 738.10 5.39 725.19 0.00 712.35 L 0.00 701.50 Z" />
<path fill="#000000" d=" M 503.02 669.17 C 532.71 673.87 562.57 677.39 592.32 681.69 C 601.69 683.14 611.23 683.56 620.47 685.81 C 622.99 686.36 623.79 689.20 624.88 691.20 C 632.97 711.15 640.71 731.26 649.28 751.00 L 634.31 751.00 C 626.50 733.73 619.91 715.91 612.73 698.37 C 578.12 694.05 543.57 689.19 509.05 684.20 C 491.06 706.06 474.49 729.08 456.59 751.00 L 439.10 751.00 C 460.49 723.79 481.40 696.20 503.02 669.17 Z" />
<path fill="#000000" d=" M 1282.06 701.19 C 1287.14 693.52 1293.54 686.80 1299.00 679.40 L 1299.00 701.42 C 1297.07 704.87 1297.73 708.64 1299.00 712.17 L 1299.00 748.54 C 1293.51 735.75 1288.27 722.86 1282.84 710.05 C 1281.91 707.27 1280.01 703.93 1282.06 701.19 Z" />
<path fill="#ffffff" d=" M 509.05 684.20 C 543.57 689.19 578.12 694.05 612.73 698.37 C 619.91 715.91 626.50 733.73 634.31 751.00 L 456.59 751.00 C 474.49 729.08 491.06 706.06 509.05 684.20 Z" />
<path fill="#ffffff" d=" M 1299.00 712.17 C 1297.73 708.64 1297.07 704.87 1299.00 701.42 L 1299.00 712.17 Z" />
<path fill="#000000" d=" M 0.00 712.35 C 5.39 725.19 10.65 738.10 15.91 751.00 L 0.00 751.00 L 0.00 712.35 Z" />
<path fill="#ffffff" d=" M 229.34 725.06 C 253.93 728.15 278.48 731.54 303.01 735.11 C 298.88 740.40 295.06 745.97 290.59 751.00 L 209.51 751.00 C 216.34 742.53 222.68 733.66 229.34 725.06 Z" />
<path fill="#ffffff" d=" M 815.18 735.99 C 850.95 741.07 886.81 745.49 922.52 751.00 L 803.42 751.00 C 807.71 746.30 811.26 740.99 815.18 735.99 Z" />
</svg>
